<?xml version="1.0" encoding="UTF-8" standalone="no"?> <svg width="512" height="512" viewBox="0 0 512 512" fill="none" xmlns="http://www.w3.org/2000/svg">
<path d="M96 496H472L421.317 358.432C419.658 353.929 417.007 349.856 413.561 346.516C410.115 343.176 405.962 340.654 401.409 339.136L296 304H216L110.591 339.136C104.881 341.04 99.8236 344.515 96 349.164V496Z" fill="#FF8661"/>
<path d="M63.9998 304H128L134.335 456.035C134.55 461.203 133.718 466.362 131.888 471.201C130.059 476.039 127.27 480.458 123.689 484.192C120.108 487.925 115.809 490.895 111.051 492.925C106.292 494.954 101.173 496 95.9998 496V496C90.8268 496 85.7072 494.954 80.9488 492.925C76.1904 490.895 71.8915 487.925 68.3106 484.192C64.7297 480.458 61.9406 476.039 60.1112 471.201C58.2818 466.362 57.4497 461.203 57.6651 456.035L63.9998 304Z" fill="#F47A5D"/>
<path d="M272 368H240L224 496H288L272 368Z" fill="#5549C1"/>
<path d="M256 376C269.255 376 280 365.255 280 352C280 338.745 269.255 328 256 328C242.745 328 232 338.745 232 352C232 365.255 242.745 376 256 376Z" fill="#6A59D1"/>
<path d="M320 384V312L296 304H216L192 312V384L256 328L320 384Z" fill="#E56B53"/>
<path d="M130 352L128 304H64L62 352H130Z" fill="#E56B53"/>
<path d="M128 128H120V160L88 128H40C35.7565 128 31.6869 126.314 28.6863 123.314C25.6857 120.313 24 116.243 24 112V48C24 43.7565 25.6857 39.6869 28.6863 36.6863C31.6869 33.6857 35.7565 32 40 32H128C132.243 32 136.313 33.6857 139.314 36.6863C142.314 39.6869 144 43.7565 144 48V112C144 116.243 142.314 120.313 139.314 123.314C136.313 126.314 132.243 128 128 128V128Z" fill="#5549C1"/>
<path d="M120 56H48V72H120V56Z" fill="#827DEA"/>
<path d="M120 88H48V104H120V88Z" fill="#827DEA"/>
<path d="M128 216H88V176C88 171.757 86.3143 167.687 83.3137 164.686C80.3131 161.686 76.2435 160 72 160C67.7565 160 63.6869 161.686 60.6863 164.686C57.6857 167.687 56 171.757 56 176V254.111C56 257.083 56.8275 259.995 58.3896 262.523C59.9518 265.051 62.187 267.093 64.8447 268.422L72 272V296H128V272L135.155 268.422C137.813 267.094 140.048 265.051 141.61 262.523C143.173 259.996 144 257.083 144 254.111V232C144 227.757 142.314 223.687 139.314 220.686C136.313 217.686 132.243 216 128 216Z" fill="#FCDCC8"/>
<path d="M432 208L416 240H384L408 264L400 304L432 280L464 304L456 264L480 240H448L432 208Z" fill="#FF8661"/>
<path d="M440 496H424V480C423.993 473.637 421.462 467.537 416.963 463.037C412.463 458.538 406.363 456.007 400 456H392C383.513 456 375.374 452.629 369.373 446.627C363.371 440.626 360 432.487 360 424C360 415.513 363.371 407.374 369.373 401.373C375.374 395.371 383.513 392 392 392H464C468.243 392 472.313 390.314 475.314 387.314C478.314 384.313 480 380.243 480 376C480 371.757 478.314 367.687 475.314 364.686C472.313 361.686 468.243 360 464 360H456C447.516 359.99 439.382 356.616 433.383 350.617C427.384 344.618 424.01 336.484 424 328V312H440V328C440.005 332.242 441.692 336.309 444.692 339.308C447.691 342.308 451.758 343.995 456 344H464C472.487 344 480.626 347.371 486.627 353.373C492.629 359.374 496 367.513 496 376C496 384.487 492.629 392.626 486.627 398.627C480.626 404.629 472.487 408 464 408H392C387.757 408 383.687 409.686 380.686 412.686C377.686 415.687 376 419.757 376 424C376 428.243 377.686 432.313 380.686 435.314C383.687 438.314 387.757 440 392 440H400C410.605 440.012 420.772 444.23 428.271 451.729C435.77 459.228 439.988 469.395 440 480V496Z" fill="#6A59D1"/>
<path d="M440 160H424V184H440V160Z" fill="#FFBAB3"/>
<path d="M466.343 170.343L450.343 186.343L461.657 197.657L477.657 181.657L466.343 170.343Z" fill="#FFBAB3"/>
<path d="M485.469 200.409L461.47 208.41L466.53 223.59L490.53 215.589L485.469 200.409Z" fill="#FFBAB3"/>
<path d="M397.657 170.343L386.343 181.657L402.343 197.657L413.657 186.343L397.657 170.343Z" fill="#FFBAB3"/>
<path d="M378.53 200.41L373.47 215.59L397.47 223.59L402.53 208.41L378.53 200.41Z" fill="#FFBAB3"/>
<path d="M216 256V304L256 328L296 304V256H216Z" fill="#EFC8B4"/>
<path d="M363.501 41.5022L360 24H207.41C192.284 24 177.637 29.303 166.017 38.9863H166.017C156.961 46.5329 150.14 56.4116 146.293 67.5541C142.445 78.6966 141.717 90.6789 144.187 102.205L160 176H352L355.846 164.465C369.053 124.842 371.692 82.4576 363.501 41.5022V41.5022Z" fill="#353535"/>
<path d="M342.03 168H320V210L346.389 203.403C350.643 202.339 354.362 199.756 356.844 196.141C359.327 192.525 360.401 188.127 359.865 183.774C359.329 179.421 357.22 175.415 353.935 172.509C350.65 169.604 346.416 168 342.03 168V168Z" fill="#EFC8B4"/>
<path d="M192 168H169.97C165.584 168 161.35 169.604 158.065 172.509C154.78 175.415 152.671 179.421 152.135 183.774C151.599 188.127 152.673 192.525 155.156 196.141C157.638 199.756 161.357 202.339 165.611 203.403L192 210V168Z" fill="#EFC8B4"/>
<path d="M321.677 139.785C310.093 132.062 300.725 121.45 294.499 108.998L288 96L284.668 101.554C278.254 112.243 269.431 121.286 258.903 127.96C248.375 134.635 236.432 138.757 224.029 139.997L196.786 142.721C193.283 143.072 190.034 144.712 187.671 147.322C185.308 149.933 184 153.329 184 156.85V192.928C184 207.195 187.815 221.202 195.05 233.498C202.285 245.794 212.677 255.932 225.148 262.86L248.23 275.683C250.607 277.004 253.281 277.697 256 277.697C258.719 277.697 261.393 277.004 263.77 275.683L286.852 262.86C299.323 255.932 309.715 245.794 316.95 233.498C324.185 221.202 328 207.195 328 192.928V151.599C328 149.262 327.423 146.96 326.32 144.899C325.217 142.838 323.622 141.081 321.677 139.785Z" fill="#FCDCC8"/>
<path d="M232 168H216V184H232V168Z" fill="#EABFAC"/>
<path d="M296 168H280V184H296V168Z" fill="#EABFAC"/>
<path d="M260.422 215.155L256.834 213.361C251.684 210.759 247.638 206.396 245.43 201.064C243.221 195.733 242.998 189.787 244.799 184.305L248.411 173.471L263.59 178.529L259.979 189.364C259.378 191.192 259.453 193.174 260.189 194.951C260.925 196.729 262.274 198.183 263.991 199.051L267.579 200.845L260.422 215.155Z" fill="#EABFAC"/>
<path d="M256 249.562C248.1 249.56 240.379 247.214 233.812 242.822L227.562 238.656L236.438 225.344L242.688 229.51C246.627 232.146 251.26 233.553 256 233.553C260.74 233.553 265.373 232.146 269.312 229.51L275.562 225.344L284.438 238.656L278.188 242.822C271.621 247.214 263.9 249.559 256 249.562Z" fill="#EABFAC"/>
<path d="M88 232C86.9494 232 85.9091 232.207 84.9385 232.609C83.9679 233.011 83.086 233.6 82.3431 234.343C81.6003 235.086 81.011 235.968 80.6089 236.939C80.2069 237.909 80 238.949 80 240V240C80 242.122 80.8429 244.157 82.3432 245.657C83.8435 247.157 85.8783 248 88 248C91.1517 248 94.2726 247.379 97.1844 246.173C100.096 244.967 102.742 243.199 104.971 240.971C107.199 238.742 108.967 236.096 110.173 233.184C111.379 230.273 112 227.152 112 224H96C96 226.122 95.1571 228.157 93.6568 229.657C92.1565 231.157 90.1217 232 88 232V232Z" fill="#EFC8B4"/>
<path d="M232 168H216V184H232V168Z" fill="black"/>
<path d="M296 168H280V184H296V168Z" fill="black"/>
<path d="M256.834 213.361L260.422 215.155L267.579 200.845L263.991 199.051C262.274 198.183 260.925 196.729 260.189 194.951C259.453 193.174 259.378 191.192 259.979 189.364L263.59 178.529L248.411 173.471L244.799 184.305C242.998 189.787 243.221 195.733 245.43 201.064C247.638 206.396 251.684 210.759 256.834 213.361V213.361Z" fill="black"/>
<path d="M233.812 242.822C240.378 247.217 248.1 249.562 256 249.562C263.9 249.562 271.622 247.217 278.188 242.822L284.438 238.656L275.562 225.344L269.312 229.51C265.373 232.146 260.74 233.553 256 233.553C251.26 233.553 246.627 232.146 242.688 229.51L236.438 225.344L227.562 238.656L233.812 242.822Z" fill="black"/>
<path d="M114.343 165.657C115.462 166.776 116.887 167.538 118.439 167.846C119.991 168.155 121.599 167.996 123.061 167.391C124.523 166.785 125.772 165.76 126.651 164.444C127.531 163.129 128 161.582 128 160V120H120C117.878 120 115.844 120.843 114.343 122.343C112.843 123.844 112 125.878 112 128V140.687L93.6572 122.343C92.1566 120.843 90.1218 120 88 120H40C37.879 119.998 35.8456 119.154 34.3458 117.654C32.8461 116.154 32.0024 114.121 32 112V48C32.0024 45.879 32.8461 43.8456 34.3458 42.3458C35.8456 40.8461 37.879 40.0024 40 40H136V24H40C33.637 24.0073 27.5368 26.5382 23.0375 31.0375C18.5382 35.5368 16.0073 41.637 16 48V112C16.0073 118.363 18.5382 124.463 23.0375 128.963C27.5368 133.462 33.637 135.993 40 136H84.6865L114.343 165.657Z" fill="black"/>
<path d="M120 56H48V72H120V56Z" fill="black"/>
<path d="M120 88H48V104H120V88Z" fill="black"/>
<path d="M403.824 349.026L412.176 335.38C409.585 333.794 406.821 332.508 403.94 331.547L304 298.233V260.794C318.317 248.97 328.531 232.925 333.186 214.95L348.329 211.164C352.532 210.117 356.406 208.034 359.597 205.106C362.788 202.177 365.196 198.497 366.6 194.399C368.004 190.302 368.359 185.918 367.634 181.648C366.909 177.377 365.127 173.357 362.449 169.952L363.435 166.995C377.064 126.048 379.791 82.2555 371.345 39.9336L367.845 22.4317C367.482 20.618 366.503 18.9861 365.072 17.8134C363.642 16.6408 361.85 16 360 16H207.409C196.576 16.0002 185.879 18.4231 176.102 23.0913C166.326 27.7595 157.717 34.5549 150.906 42.98C144.095 51.405 139.255 61.2466 136.739 71.7841C134.222 82.3217 134.095 93.2885 136.364 103.882L150.322 169.017C147.422 172.37 145.429 176.411 144.534 180.754C143.639 185.096 143.872 189.596 145.211 193.823C146.55 198.05 148.949 201.863 152.181 204.899C155.413 207.935 159.369 210.092 163.671 211.164L178.814 214.949C183.469 232.925 193.684 248.97 208 260.794V298.234L137.085 321.872L136 295.831V276.944L138.733 275.577C142.729 273.596 146.09 270.535 148.435 266.741C150.78 262.947 152.015 258.572 152 254.111V232C151.993 225.637 149.462 219.537 144.963 215.037C140.463 210.538 134.363 208.007 128 208H96.0001V176C96.0001 169.635 93.4716 163.53 88.9707 159.029C84.4698 154.529 78.3653 152 72.0001 152C65.6349 152 59.5304 154.529 55.0296 159.029C50.5287 163.53 48.0001 169.635 48.0001 176V254.111C47.985 258.572 49.2198 262.947 51.5647 266.741C53.9096 270.535 57.2706 273.596 61.2667 275.577L64.0001 276.944V288C61.936 288 59.9518 288.798 58.4622 290.227C56.9726 291.655 56.0929 293.605 56.007 295.667L49.672 447.702C49.4118 453.948 50.4174 460.183 52.6284 466.03C54.8393 471.878 58.2099 477.218 62.5375 481.73C66.8651 486.241 72.0603 489.831 77.8109 492.284C83.5614 494.736 89.7485 496 96.0001 496C102.252 496 108.439 494.736 114.189 492.284C119.94 489.831 125.135 486.241 129.463 481.73C133.79 477.218 137.161 471.878 139.372 466.03C141.583 460.183 142.588 453.948 142.328 447.702L137.778 338.507L184 323.1V384C184 385.537 184.443 387.041 185.275 388.333C186.108 389.625 187.295 390.65 188.694 391.285C190.094 391.92 191.647 392.139 193.167 391.914C194.687 391.69 196.111 391.033 197.268 390.021L226.514 364.43C227.738 367.318 229.379 370.011 231.385 372.422L216.062 495.008L231.939 496.992L246.253 382.477C252.592 384.508 259.408 384.508 265.747 382.477L280.062 496.992L295.939 495.008L280.615 372.422C282.621 370.011 284.263 367.318 285.487 364.43L314.733 390.021C315.889 391.033 317.313 391.69 318.833 391.914C320.354 392.139 321.907 391.92 323.306 391.285C324.706 390.65 325.893 389.625 326.725 388.333C327.558 387.041 328 385.537 328 384V323.1L398.879 346.727C400.609 347.303 402.269 348.075 403.824 349.026V349.026ZM64.0001 176C64.0001 173.878 64.843 171.843 66.3433 170.343C67.8436 168.843 69.8784 168 72.0001 168C74.1219 168 76.1567 168.843 77.657 170.343C79.1573 171.843 80.0001 173.878 80.0001 176V208H72.0001C69.2745 207.999 66.5687 208.464 64.0001 209.376V176ZM117.916 470.653C113.647 475.105 108.123 478.15 102.08 479.385C96.0369 480.62 89.7612 479.985 84.0877 477.566C78.4142 475.146 73.6119 471.057 70.3198 465.841C67.0276 460.625 65.4017 454.531 65.6583 448.368L69.674 352H122.326L126.342 448.368C126.528 452.461 125.876 456.548 124.427 460.38C122.979 464.212 120.763 467.707 117.916 470.653V470.653ZM70.3405 336L71.674 304H120.326L121.66 336H70.3405ZM131.577 261.267L124.422 264.845C123.093 265.509 121.976 266.531 121.195 267.794C120.414 269.058 120 270.514 120 272V288H80.0001V272C80.0001 270.514 79.5864 269.058 78.8055 267.794C78.0245 266.531 76.907 265.509 75.5783 264.845L68.422 261.267C67.0901 260.606 65.9698 259.586 65.1883 258.321C64.4067 257.056 63.9951 255.598 64.0001 254.111V232C64.0026 229.879 64.8462 227.846 66.346 226.346C67.8457 224.846 69.8792 224.002 72.0001 224H96.0001C95.9977 226.121 95.1541 228.154 93.6543 229.654C92.1545 231.154 90.1211 231.998 88.0001 232H80.0001V248H88.0001C94.3631 247.993 100.463 245.462 104.963 240.963C109.462 236.463 111.993 230.363 112 224H128C130.121 224.002 132.155 224.846 133.654 226.346C135.154 227.846 135.998 229.879 136 232V254.111C136.005 255.598 135.593 257.057 134.812 258.321C134.03 259.586 132.909 260.606 131.577 261.267ZM344.448 195.643L335.854 197.791C335.944 196.176 336 194.556 336 192.928V176H342.03C344.464 176 346.813 176.89 348.635 178.502C350.458 180.114 351.628 182.337 351.925 184.752C352.223 187.167 351.627 189.607 350.249 191.613C348.872 193.619 346.809 195.052 344.448 195.643L344.448 195.643ZM167.552 195.643C165.191 195.052 163.128 193.619 161.751 191.613C160.374 189.607 159.777 187.167 160.075 184.752C160.372 182.337 161.542 180.114 163.365 178.502C165.187 176.89 167.537 176 169.97 176H176V192.928C176 194.556 176.057 196.177 176.146 197.791L167.552 195.643ZM176 156.851V160H169.97C168.254 160 166.543 160.17 164.861 160.507L152.009 100.529C150.239 92.2687 150.338 83.7168 152.3 75.4996C154.262 67.2825 158.037 59.608 163.348 53.0382C168.659 46.4684 175.373 41.1694 182.996 37.5293C190.62 33.8891 198.961 31.9999 207.409 32H353.442L355.655 43.0713C363.478 82.2821 361.051 122.848 348.608 160.846C346.461 160.284 344.25 159.999 342.03 160H336V151.6C336.004 147.944 335.104 144.345 333.379 141.122C331.654 137.899 329.158 135.153 326.114 133.129C315.692 126.174 307.262 116.624 301.654 105.42L295.155 92.4219C294.514 91.1398 293.54 90.0535 292.335 89.2766C291.131 88.4998 289.739 88.0609 288.307 88.0059C286.874 87.9509 285.453 88.2818 284.193 88.964C282.932 89.6462 281.877 90.6546 281.14 91.8838L277.808 97.4375C272.017 107.042 264.072 115.167 254.6 121.172C245.128 127.177 234.389 130.897 223.233 132.037L195.99 134.762C190.506 135.294 185.418 137.853 181.721 141.938C178.024 146.023 175.984 151.341 176 156.851V156.851ZM192 192.928V156.851C191.996 155.312 192.565 153.827 193.598 152.686C194.63 151.545 196.051 150.83 197.582 150.682L224.824 147.957C237.138 146.697 249.05 142.866 259.79 136.712C270.53 130.559 279.859 122.219 287.173 112.233L287.344 112.575C294.198 126.27 304.502 137.942 317.24 146.442C318.09 147.008 318.787 147.774 319.268 148.674C319.75 149.574 320.001 150.579 320 151.6V192.928C319.996 205.767 316.561 218.372 310.05 229.438C303.539 240.504 294.188 249.628 282.967 255.867L259.886 268.69C258.699 269.355 257.361 269.704 256.001 269.704C254.64 269.704 253.302 269.355 252.115 268.69L229.033 255.867C217.812 249.628 208.462 240.504 201.951 229.438C195.439 218.372 192.004 205.767 192 192.928V192.928ZM288 271.374V299.471L256 318.671L224 299.471V271.374L244.345 282.677C247.906 284.671 251.919 285.718 256 285.718C260.081 285.718 264.094 284.671 267.655 282.677L288 271.374ZM200 366.37V317.766L215.039 312.753L242.468 329.211L200 366.37ZM256 368C251.865 367.993 247.893 366.387 244.916 363.516C241.939 360.646 240.188 356.735 240.031 352.603L256 338.63L271.97 352.603C271.812 356.735 270.061 360.646 267.085 363.516C264.108 366.387 260.135 367.993 256 368V368ZM312 366.37L269.532 329.211L296.961 312.753L312 317.767V366.37Z" fill="black"/>
<path d="M487.39 236.938C486.785 235.477 485.76 234.227 484.444 233.348C483.129 232.469 481.582 232 480 232H452.944L439.155 204.422C438.491 203.093 437.469 201.976 436.205 201.195C434.942 200.414 433.485 200 432 200C430.514 200 429.058 200.414 427.794 201.195C426.53 201.976 425.509 203.093 424.845 204.422L411.055 232H384C382.418 232 380.871 232.469 379.555 233.349C378.24 234.228 377.215 235.477 376.609 236.939C376.004 238.401 375.845 240.009 376.154 241.561C376.462 243.113 377.224 244.538 378.343 245.657L399.315 266.629L392.155 302.431C391.837 304.019 392.01 305.667 392.649 307.156C393.288 308.644 394.364 309.904 395.734 310.768C397.105 311.631 398.705 312.059 400.324 311.993C401.943 311.928 403.503 311.372 404.8 310.4L432 290L459.2 310.4C460.496 311.372 462.057 311.928 463.676 311.993C465.294 312.059 466.895 311.631 468.265 310.768C469.636 309.904 470.712 308.644 471.351 307.156C471.99 305.667 472.162 304.019 471.845 302.431L464.684 266.629L485.657 245.657C486.776 244.538 487.538 243.113 487.846 241.561C488.155 240.009 487.996 238.4 487.39 236.938V236.938ZM450.343 258.343C449.412 259.274 448.725 260.421 448.343 261.682C447.962 262.943 447.897 264.278 448.155 265.569L452.049 285.037L436.8 273.6C435.415 272.561 433.731 272 432 272C430.269 272 428.585 272.561 427.2 273.6L411.951 285.037L415.845 265.569C416.103 264.278 416.038 262.943 415.657 261.682C415.275 260.421 414.588 259.274 413.657 258.343L403.313 248H416C417.485 248 418.942 247.586 420.205 246.805C421.469 246.024 422.491 244.907 423.155 243.578L432 225.889L440.845 243.578C441.509 244.907 442.53 246.024 443.794 246.805C445.058 247.586 446.514 248 448 248H460.686L450.343 258.343Z" fill="black"/>
<path d="M464 344H456C451.758 343.995 447.691 342.308 444.692 339.308C441.692 336.309 440.005 332.242 440 328V312H424V328C424.01 336.484 427.384 344.618 433.383 350.617C439.382 356.616 447.516 359.99 456 360H464C468.243 360 472.313 361.686 475.314 364.686C478.314 367.687 480 371.757 480 376C480 380.243 478.314 384.313 475.314 387.314C472.313 390.314 468.243 392 464 392H392C383.513 392 375.374 395.371 369.373 401.373C363.371 407.374 360 415.513 360 424C360 432.487 363.371 440.626 369.373 446.627C375.374 452.629 383.513 456 392 456H400C406.363 456.007 412.463 458.538 416.963 463.037C421.462 467.537 423.993 473.637 424 480V496H440V480C439.988 469.395 435.77 459.228 428.271 451.729C420.772 444.23 410.605 440.012 400 440H392C387.757 440 383.687 438.314 380.686 435.314C377.686 432.313 376 428.243 376 424C376 419.757 377.686 415.687 380.686 412.686C383.687 409.686 387.757 408 392 408H464C472.487 408 480.626 404.629 486.627 398.627C492.629 392.626 496 384.487 496 376C496 367.513 492.629 359.374 486.627 353.373C480.626 347.371 472.487 344 464 344Z" fill="black"/>
<path d="M440 160H424V184H440V160Z" fill="black"/>
<path d="M466.343 170.343L450.343 186.343L461.657 197.657L477.657 181.657L466.343 170.343Z" fill="black"/>
<path d="M485.47 200.41L461.47 208.41L466.53 223.59L490.53 215.59L485.47 200.41Z" fill="black"/>
<path d="M397.657 170.343L386.343 181.657L402.343 197.657L413.657 186.343L397.657 170.343Z" fill="black"/>
<path d="M378.53 200.41L373.47 215.59L397.469 223.591L402.53 208.411L378.53 200.41Z" fill="black"/>
</svg>
